<svg id="visual" viewBox="0 0 900 200" width="900" height="200" xmlns="http://www.w3.org/2000/svg" xmlns:xlink="http://www.w3.org/1999/xlink" version="1.1"><rect x="0" y="0" width="900" height="200" fill="#9DCBDC"></rect><path d="M0 110L21.5 110.5C43 111 86 112 128.8 115.7C171.7 119.3 214.3 125.7 257.2 133.5C300 141.3 343 150.7 385.8 149C428.7 147.3 471.3 134.7 514.2 127.7C557 120.7 600 119.3 642.8 119.5C685.7 119.7 728.3 121.3 771.2 122C814 122.7 857 122.3 878.5 122.2L900 122L900 0L878.5 0C857 0 814 0 771.2 0C728.3 0 685.7 0 642.8 0C600 0 557 0 514.2 0C471.3 0 428.7 0 385.8 0C343 0 300 0 257.2 0C214.3 0 171.7 0 128.8 0C86 0 43 0 21.5 0L0 0Z" fill="#7dbacf"></path><path d="M0 134L21.5 130.2C43 126.3 86 118.7 128.8 114.8C171.7 111 214.3 111 257.2 112.2C300 113.3 343 115.7 385.8 118.5C428.7 121.3 471.3 124.7 514.2 120.8C557 117 600 106 642.8 99.2C685.7 92.3 728.3 89.7 771.2 94.5C814 99.3 857 111.7 878.5 117.8L900 124L900 0L878.5 0C857 0 814 0 771.2 0C728.3 0 685.7 0 642.8 0C600 0 557 0 514.2 0C471.3 0 428.7 0 385.8 0C343 0 300 0 257.2 0C214.3 0 171.7 0 128.8 0C86 0 43 0 21.5 0L0 0Z" fill="#6ba9c0"></path><path d="M0 61L21.5 62C43 63 86 65 128.8 65.2C171.7 65.3 214.3 63.7 257.2 63C300 62.3 343 62.7 385.8 65.8C428.7 69 471.3 75 514.2 75.2C557 75.3 600 69.7 642.8 71.7C685.7 73.7 728.3 83.3 771.2 83.7C814 84 857 75 878.5 70.5L900 66L900 0L878.5 0C857 0 814 0 771.2 0C728.3 0 685.7 0 642.8 0C600 0 557 0 514.2 0C471.3 0 428.7 0 385.8 0C343 0 300 0 257.2 0C214.3 0 171.7 0 128.8 0C86 0 43 0 21.5 0L0 0Z" fill="#5999b2"></path><path d="M0 70L21.5 71.2C43 72.3 86 74.7 128.8 74.7C171.7 74.7 214.3 72.3 257.2 70C300 67.7 343 65.3 385.8 64.5C428.7 63.7 471.3 64.3 514.2 65.8C557 67.3 600 69.7 642.8 66.8C685.7 64 728.3 56 771.2 51C814 46 857 44 878.5 43L900 42L900 0L878.5 0C857 0 814 0 771.2 0C728.3 0 685.7 0 642.8 0C600 0 557 0 514.2 0C471.3 0 428.7 0 385.8 0C343 0 300 0 257.2 0C214.3 0 171.7 0 128.8 0C86 0 43 0 21.5 0L0 0Z" fill="#4789a3"></path><path d="M0 18L21.5 22C43 26 86 34 128.8 38C171.7 42 214.3 42 257.2 42.2C300 42.3 343 42.7 385.8 39.2C428.7 35.7 471.3 28.3 514.2 25.5C557 22.7 600 24.3 642.8 28.7C685.7 33 728.3 40 771.2 41.8C814 43.7 857 40.3 878.5 38.7L900 37L900 0L878.5 0C857 0 814 0 771.2 0C728.3 0 685.7 0 642.8 0C600 0 557 0 514.2 0C471.3 0 428.7 0 385.8 0C343 0 300 0 257.2 0C214.3 0 171.7 0 128.8 0C86 0 43 0 21.5 0L0 0Z" fill="#347995"></path></svg>