<svg id="visual" viewBox="0 0 900 200" width="900" height="200" xmlns="http://www.w3.org/2000/svg" xmlns:xlink="http://www.w3.org/1999/xlink" version="1.1"><path d="M0 165L21.5 158.2C43 151.3 86 137.7 128.8 134.3C171.7 131 214.3 138 257.2 145.3C300 152.7 343 160.3 385.8 163C428.7 165.7 471.3 163.3 514.2 157.7C557 152 600 143 642.8 141.8C685.7 140.7 728.3 147.3 771.2 153.3C814 159.3 857 164.7 878.5 167.3L900 170L900 201L878.5 201C857 201 814 201 771.2 201C728.3 201 685.7 201 642.8 201C600 201 557 201 514.2 201C471.3 201 428.7 201 385.8 201C343 201 300 201 257.2 201C214.3 201 171.7 201 128.8 201C86 201 43 201 21.5 201L0 201Z" fill="#9DCBDC" stroke-linecap="round" stroke-linejoin="miter"></path></svg>