<svg id="visual" viewBox="0 0 900 200" width="900" height="200" xmlns="http://www.w3.org/2000/svg" xmlns:xlink="http://www.w3.org/1999/xlink" version="1.1"><path d="M0 165L21.5 160C43 155 86 145 128.8 145.8C171.7 146.7 214.3 158.3 257.2 160.3C300 162.3 343 154.7 385.8 147.7C428.7 140.7 471.3 134.3 514.2 132.7C557 131 600 134 642.8 134.8C685.7 135.7 728.3 134.3 771.2 140.3C814 146.3 857 159.7 878.5 166.3L900 173L900 201L878.5 201C857 201 814 201 771.2 201C728.3 201 685.7 201 642.8 201C600 201 557 201 514.2 201C471.3 201 428.7 201 385.8 201C343 201 300 201 257.2 201C214.3 201 171.7 201 128.8 201C86 201 43 201 21.5 201L0 201Z" fill="#9DCBDC" stroke-linecap="round" stroke-linejoin="miter"></path></svg>