<svg id="visual" viewBox="0 0 900 200" width="900" height="200" xmlns="http://www.w3.org/2000/svg" xmlns:xlink="http://www.w3.org/1999/xlink" version="1.1"><rect x="0" y="0" width="900" height="200" fill="#9DCBDC"></rect><path d="M0 71L18.8 74.3C37.7 77.7 75.3 84.3 112.8 80.5C150.3 76.7 187.7 62.3 225.2 56.8C262.7 51.3 300.3 54.7 337.8 53.7C375.3 52.7 412.7 47.3 450.2 50.2C487.7 53 525.3 64 562.8 72.3C600.3 80.7 637.7 86.3 675.2 82.2C712.7 78 750.3 64 787.8 59.3C825.3 54.7 862.7 59.3 881.3 61.7L900 64L900 201L881.3 201C862.7 201 825.3 201 787.8 201C750.3 201 712.7 201 675.2 201C637.7 201 600.3 201 562.8 201C525.3 201 487.7 201 450.2 201C412.7 201 375.3 201 337.8 201C300.3 201 262.7 201 225.2 201C187.7 201 150.3 201 112.8 201C75.3 201 37.7 201 18.8 201L0 201Z" fill="#9dcbdc"></path><path d="M0 105L18.8 105.8C37.7 106.7 75.3 108.3 112.8 103.5C150.3 98.7 187.7 87.3 225.2 82.2C262.7 77 300.3 78 337.8 75.3C375.3 72.7 412.7 66.3 450.2 71.2C487.7 76 525.3 92 562.8 93.5C600.3 95 637.7 82 675.2 74C712.7 66 750.3 63 787.8 63.3C825.3 63.7 862.7 67.3 881.3 69.2L900 71L900 201L881.3 201C862.7 201 825.3 201 787.8 201C750.3 201 712.7 201 675.2 201C637.7 201 600.3 201 562.8 201C525.3 201 487.7 201 450.2 201C412.7 201 375.3 201 337.8 201C300.3 201 262.7 201 225.2 201C187.7 201 150.3 201 112.8 201C75.3 201 37.7 201 18.8 201L0 201Z" fill="#89bacd"></path><path d="M0 88L18.8 87.7C37.7 87.3 75.3 86.7 112.8 87.7C150.3 88.7 187.7 91.3 225.2 95.3C262.7 99.3 300.3 104.7 337.8 105.3C375.3 106 412.7 102 450.2 100.5C487.7 99 525.3 100 562.8 99.8C600.3 99.7 637.7 98.3 675.2 96.8C712.7 95.3 750.3 93.7 787.8 97.7C825.3 101.7 862.7 111.3 881.3 116.2L900 121L900 201L881.3 201C862.7 201 825.3 201 787.8 201C750.3 201 712.7 201 675.2 201C637.7 201 600.3 201 562.8 201C525.3 201 487.7 201 450.2 201C412.7 201 375.3 201 337.8 201C300.3 201 262.7 201 225.2 201C187.7 201 150.3 201 112.8 201C75.3 201 37.7 201 18.8 201L0 201Z" fill="#74a9bf"></path><path d="M0 145L18.8 145.2C37.7 145.3 75.3 145.7 112.8 143.7C150.3 141.7 187.7 137.3 225.2 133.2C262.7 129 300.3 125 337.8 125.5C375.3 126 412.7 131 450.2 132.8C487.7 134.7 525.3 133.3 562.8 132.8C600.3 132.3 637.7 132.7 675.2 133C712.7 133.3 750.3 133.7 787.8 129.3C825.3 125 862.7 116 881.3 111.5L900 107L900 201L881.3 201C862.7 201 825.3 201 787.8 201C750.3 201 712.7 201 675.2 201C637.7 201 600.3 201 562.8 201C525.3 201 487.7 201 450.2 201C412.7 201 375.3 201 337.8 201C300.3 201 262.7 201 225.2 201C187.7 201 150.3 201 112.8 201C75.3 201 37.7 201 18.8 201L0 201Z" fill="#6099b1"></path><path d="M0 135L18.8 136.2C37.7 137.3 75.3 139.7 112.8 142.2C150.3 144.7 187.7 147.3 225.2 146.7C262.7 146 300.3 142 337.8 143.2C375.3 144.3 412.7 150.7 450.2 154.3C487.7 158 525.3 159 562.8 156.8C600.3 154.7 637.7 149.3 675.2 147C712.7 144.7 750.3 145.3 787.8 148.5C825.3 151.7 862.7 157.3 881.3 160.2L900 163L900 201L881.3 201C862.7 201 825.3 201 787.8 201C750.3 201 712.7 201 675.2 201C637.7 201 600.3 201 562.8 201C525.3 201 487.7 201 450.2 201C412.7 201 375.3 201 337.8 201C300.3 201 262.7 201 225.2 201C187.7 201 150.3 201 112.8 201C75.3 201 37.7 201 18.8 201L0 201Z" fill="#4b89a3"></path><path d="M0 171L18.8 172.2C37.7 173.3 75.3 175.7 112.8 173.7C150.3 171.7 187.7 165.3 225.2 164.5C262.7 163.7 300.3 168.3 337.8 169.7C375.3 171 412.7 169 450.2 167.8C487.7 166.7 525.3 166.3 562.8 167C600.3 167.7 637.7 169.3 675.2 170C712.7 170.7 750.3 170.3 787.8 168.5C825.3 166.7 862.7 163.3 881.3 161.7L900 160L900 201L881.3 201C862.7 201 825.3 201 787.8 201C750.3 201 712.7 201 675.2 201C637.7 201 600.3 201 562.8 201C525.3 201 487.7 201 450.2 201C412.7 201 375.3 201 337.8 201C300.3 201 262.7 201 225.2 201C187.7 201 150.3 201 112.8 201C75.3 201 37.7 201 18.8 201L0 201Z" fill="#347995"></path></svg>