<svg id="visual" viewBox="0 0 900 200" width="900" height="200" xmlns="http://www.w3.org/2000/svg" xmlns:xlink="http://www.w3.org/1999/xlink" version="1.1"><path d="M0 126L21.5 134.5C43 143 86 160 128.8 161.8C171.7 163.7 214.3 150.3 257.2 142.8C300 135.3 343 133.7 385.8 135.8C428.7 138 471.3 144 514.2 150.5C557 157 600 164 642.8 168.2C685.7 172.3 728.3 173.7 771.2 166.2C814 158.7 857 142.3 878.5 134.2L900 126L900 201L878.5 201C857 201 814 201 771.2 201C728.3 201 685.7 201 642.8 201C600 201 557 201 514.2 201C471.3 201 428.7 201 385.8 201C343 201 300 201 257.2 201C214.3 201 171.7 201 128.8 201C86 201 43 201 21.5 201L0 201Z" fill="#9DCBDC" stroke-linecap="round" stroke-linejoin="miter"></path></svg>